<?xml version="1.0" encoding="UTF-8" standalone="no"?>
<!DOCTYPE svg PUBLIC "-//W3C//DTD SVG 1.1//EN"
 "http://www.w3.org/Graphics/SVG/1.1/DTD/svg11.dtd">
<!-- Generated by graphviz version 14.0.5 (20251129.0259)
 -->
<!-- Title: G Pages: 1 -->
<svg width="613pt" height="98pt"
 viewBox="0.00 0.00 613.00 98.00" xmlns="http://www.w3.org/2000/svg" xmlns:xlink="http://www.w3.org/1999/xlink">
<g id="graph0" class="graph" transform="scale(1 1) rotate(0) translate(4 94)">
<title>G</title>
<polygon fill="white" stroke="none" points="-4,4 -4,-94 609.25,-94 609.25,4 -4,4"/>
<!-- data.aws_key_pair.key -->
<g id="node1" class="node">
<title>data.aws_key_pair.key</title>
<polygon fill="none" stroke="black" points="375.5,-90 222.25,-90 222.25,-54 375.5,-54 375.5,-90"/>
<text xml:space="preserve" text-anchor="middle" x="298.88" y="-67.33" font-family="sans-serif" font-size="14.00">data.aws_key_pair.key</text>
</g>
<!-- aws_instance.public_ec2 -->
<g id="node2" class="node">
<title>aws_instance.public_ec2</title>
<polygon fill="none" stroke="black" points="597.38,-90 430.62,-90 430.62,-54 597.38,-54 597.38,-90"/>
<text xml:space="preserve" text-anchor="middle" x="514" y="-67.33" font-family="sans-serif" font-size="14.00">aws_instance.public_ec2</text>
</g>
<!-- aws_instance.public_ec2&#45;&gt;data.aws_key_pair.key -->
<g id="edge1" class="edge">
<title>aws_instance.public_ec2&#45;&gt;data.aws_key_pair.key</title>
<path fill="none" stroke="black" d="M430.3,-72C416.17,-72 401.45,-72 387.21,-72"/>
<polygon fill="black" stroke="black" points="387.43,-68.5 377.43,-72 387.43,-75.5 387.43,-68.5"/>
</g>
<!-- aws_subnet.public_subnet -->
<g id="node4" class="node">
<title>aws_subnet.public_subnet</title>
<polygon fill="none" stroke="black" points="386.75,-36 211,-36 211,0 386.75,0 386.75,-36"/>
<text xml:space="preserve" text-anchor="middle" x="298.88" y="-13.32" font-family="sans-serif" font-size="14.00">aws_subnet.public_subnet</text>
</g>
<!-- aws_instance.public_ec2&#45;&gt;aws_subnet.public_subnet -->
<g id="edge2" class="edge">
<title>aws_instance.public_ec2&#45;&gt;aws_subnet.public_subnet</title>
<path fill="none" stroke="black" d="M440.25,-53.57C422.09,-48.97 402.47,-43.99 383.82,-39.27"/>
<polygon fill="black" stroke="black" points="384.68,-35.88 374.13,-36.81 382.96,-42.66 384.68,-35.88"/>
</g>
<!-- aws_subnet.private_subnet -->
<g id="node3" class="node">
<title>aws_subnet.private_subnet</title>
<polygon fill="none" stroke="black" points="605.25,-36 422.75,-36 422.75,0 605.25,0 605.25,-36"/>
<text xml:space="preserve" text-anchor="middle" x="514" y="-13.32" font-family="sans-serif" font-size="14.00">aws_subnet.private_subnet</text>
</g>
<!-- aws_subnet.private_subnet&#45;&gt;aws_subnet.public_subnet -->
<g id="edge3" class="edge">
<title>aws_subnet.private_subnet&#45;&gt;aws_subnet.public_subnet</title>
<path fill="none" stroke="black" d="M422.31,-18C414.47,-18 406.51,-18 398.61,-18"/>
<polygon fill="black" stroke="black" points="398.61,-14.5 388.61,-18 398.61,-21.5 398.61,-14.5"/>
</g>
<!-- aws_vpc.vpc_test_virginia -->
<g id="node5" class="node">
<title>aws_vpc.vpc_test_virginia</title>
<polygon fill="none" stroke="black" points="175,-36 0,-36 0,0 175,0 175,-36"/>
<text xml:space="preserve" text-anchor="middle" x="87.5" y="-13.32" font-family="sans-serif" font-size="14.00">aws_vpc.vpc_test_virginia</text>
</g>
<!-- aws_subnet.public_subnet&#45;&gt;aws_vpc.vpc_test_virginia -->
<g id="edge4" class="edge">
<title>aws_subnet.public_subnet&#45;&gt;aws_vpc.vpc_test_virginia</title>
<path fill="none" stroke="black" d="M210.6,-18C202.67,-18 194.6,-18 186.58,-18"/>
<polygon fill="black" stroke="black" points="186.81,-14.5 176.81,-18 186.81,-21.5 186.81,-14.5"/>
</g>
</g>
</svg>
